<svg xmlns="http://www.w3.org/2000/svg" width="1141" height="150"><defs><linearGradient x1="50%" y1="0%" x2="50%" y2="244.213%" id="a"><stop stop-color="#5009C0" offset="0%"/><stop stop-color="#FF6351" offset="100%"/></linearGradient></defs><g fill="none" fill-rule="evenodd"><g fill="#4D1DB5"><path d="M446.926 124.184c0 5.124-4.357 9.455-9.513 9.455H361.31c-5.156 0-9.513-4.33-9.513-9.455v-98.47c0-5.125 4.357-9.456 9.513-9.456h76.103c5.156 0 9.513 4.33 9.513 9.455v98.47zM437.413.5H361.31c-13.952 0-25.368 11.346-25.368 25.213v98.47c0 13.866 11.416 25.214 25.368 25.214h76.103c13.952 0 25.368-11.348 25.368-25.213v-98.47C462.78 11.845 451.365.5 437.413.5zM196.237 80.925v68.472h15.855V80.925c0-5.15 4.36-9.479 9.513-9.479h101.47V55.647h-101.47c-13.953 0-25.368 11.377-25.368 25.278m0-65.719h126.838V.5H196.237zm582.72 134.191h14.706V.5h-14.706zM827.669.5h-15.624v148.897h93.75V133.64H827.67zM590.302 46.987c0 4.942-4.053 9.133-8.966 9.427-.182-.004-.356-.027-.538-.027h-85.619V25.715c0-5.125 4.357-9.456 9.511-9.456h85.612v30.728zm15.854 0V.5H504.69c-13.95 0-25.365 11.347-25.365 25.215v46.487h.007v77.195h15.854V72.202h85.603c.188 0 .368-.024.554-.029 4.98.283 8.967 4.396 8.967 9.429v67.795h15.853V81.602c0-6.723-2.663-12.814-6.976-17.332 4.304-4.525 6.97-10.604 6.97-17.283zM983.549.5v5.83h.141v41.256c0 5.124-4.343 9.457-9.513 9.457h-76.102c-5.151 0-9.511-4.333-9.511-9.457V17.693h-.144V.5h-15.713v47.086c0 13.868 11.417 25.215 25.368 25.215h30.128v76.596h15.857V72.801h30.117c13.954 0 25.368-11.347 25.368-25.215V.5H983.55zM755.463.5h-11.279L692.73 50.633 642.11.5h-11.183l-.007.007h-10.05v148.89h15.726V17.193l56.045 55.508 54.046-52.656v129.352h15.727V.507h-6.945z"/><path d="M404.566 61.162h-10.409a8.581 8.581 0 00-8.582 8.582v10.409a8.581 8.581 0 008.582 8.582h10.409a8.581 8.581 0 008.582-8.582V69.744a8.581 8.581 0 00-8.582-8.582"/></g><path d="M0 35.687a71.963 71.963 0 008.996 11.008C24.819 62.519 46.195 69.4 66.851 67.35c2.05-20.656-4.832-42.032-20.654-57.857A71.943 71.943 0 0035.187.5c2.4 9.569-.11 20.113-7.592 27.595C20.113 35.577 9.57 38.086 0 35.687zm147.85 77.475a72.065 72.065 0 00-8.997-11.01c-15.822-15.822-37.198-22.704-57.855-20.654-2.05 20.657 4.832 42.033 20.655 57.857a71.943 71.943 0 0011.009 8.994c-2.399-9.568.11-20.113 7.592-27.595 7.482-7.482 18.027-9.99 27.595-7.592z" fill="#8C4AFF"/><path d="M35.187 148.35a71.943 71.943 0 0011.01-8.995c15.822-15.824 22.704-37.2 20.654-57.857-20.656-2.05-42.032 4.832-57.855 20.655A72.065 72.065 0 000 113.162c9.569-2.399 20.113.11 27.595 7.592 7.482 7.482 9.991 18.027 7.592 27.595zM112.662.5a71.943 71.943 0 00-11.01 8.994C85.83 25.32 78.949 46.694 80.999 67.351c20.657 2.05 42.033-4.832 57.855-20.656a71.963 71.963 0 008.996-11.008c-9.568 2.4-20.113-.11-27.595-7.592-7.482-7.482-9.99-18.026-7.592-27.595z" fill="#4D1DB5"/><path d="M1077 0h28c19.882 0 36 16.118 36 36s-16.118 36-36 36h-64V36c0-19.882 16.118-36 36-36z" fill="url(#a)"/><path d="M1076.515 54.72l20.332-36.816h-8.684l-12.636 24.128h-.104l-5.72-24.128h-9.256l9.568 36.816h6.5zm41.524 0l.936-6.864h-16.328l12.532-9.62c1.595-1.213 2.947-2.574 4.056-4.082 1.11-1.508 1.837-3.44 2.184-5.798.243-1.837.156-3.45-.26-4.836-.416-1.387-1.092-2.54-2.028-3.458-.936-.919-2.097-1.612-3.484-2.08-1.387-.468-2.912-.702-4.576-.702-1.803 0-3.51.234-5.122.702-1.612.468-3.05 1.17-4.316 2.106-1.265.936-2.349 2.106-3.25 3.51-.901 1.404-1.543 3.06-1.924 4.966l7.748.572c.277-1.317.884-2.427 1.82-3.328.936-.901 2.132-1.352 3.588-1.352 1.213 0 2.219.355 3.016 1.066.797.71 1.11 1.69.936 2.938a4.152 4.152 0 01-.52 1.56 8.303 8.303 0 01-.962 1.352 10.91 10.91 0 01-1.196 1.17c-.433.364-.858.72-1.274 1.066l-16.12 12.844-1.144 8.268h25.688z" fill="#FFF" fill-rule="nonzero"/></g></svg>
