<svg xmlns="http://www.w3.org/2000/svg" xmlns:xlink="http://www.w3.org/1999/xlink" width="151.17333984375" height="24" viewBox="0 0 151.17333984375 24" fill="none"><g opacity="1"  transform="translate(0 0)  rotate(0)"><g opacity="1"  transform="translate(0 0)  rotate(0)"><mask id="bg-mask-0" fill="white"><use transform="translate(0 0)  rotate(0)" xlink:href="#path_0"></use></mask><g mask="url(#bg-mask-0)" ><g opacity="1"  transform="translate(2.391155242919922 2.894322395324707)  rotate(0)"><path id="路径 1" fill-rule="evenodd" style="fill:#12D2AC" opacity="1" d="M1.48685 9.08568L8.85885 1.53568C8.91798 1.47511 8.97862 1.41604 9.04075 1.35849C9.10282 1.30094 9.16628 1.24497 9.23115 1.19058C9.29608 1.13619 9.36228 1.08346 9.42975 1.03237C9.49728 0.981284 9.56602 0.931911 9.63595 0.884251C9.70595 0.836584 9.77708 0.790694 9.84935 0.746581C9.92162 0.702461 9.99492 0.660171 10.0693 0.619711C10.1437 0.579244 10.219 0.540658 10.2952 0.503951C10.3716 0.467238 10.4487 0.432451 10.5268 0.399591C10.6047 0.366724 10.6835 0.335824 10.7631 0.306891C10.8427 0.277951 10.9229 0.251014 11.0039 0.226081C11.0847 0.201141 11.1662 0.178234 11.2482 0.157361C11.3303 0.136481 11.4128 0.117661 11.4958 0.100901C11.5788 0.0841344 11.6621 0.0694476 11.7458 0.0568409C11.8296 0.0442276 11.9136 0.033711 11.9979 0.025291C12.0821 0.0168643 12.1665 0.0105443 12.2511 0.00633096C12.3356 0.00211095 12.4202 9.53674e-07 12.5049 9.53674e-07C12.5895 9.53674e-07 12.6741 0.00211095 12.7586 0.00633096C12.8433 0.0105443 12.9277 0.0168643 13.0119 0.025291C13.0961 0.033711 13.1801 0.0442276 13.2638 0.0568409C13.3476 0.0694476 13.4309 0.0841344 13.5138 0.100901C13.5968 0.117661 13.6794 0.136481 13.7614 0.157361C13.8435 0.178234 13.925 0.201141 14.0058 0.226081C14.0868 0.251014 14.167 0.277951 14.2465 0.306891C14.3262 0.335824 14.405 0.366724 14.483 0.399591C14.561 0.432451 14.6381 0.467238 14.7145 0.503951C14.7907 0.540658 14.8661 0.579244 14.9405 0.619711C15.0148 0.660171 15.0881 0.702461 15.1604 0.746581C15.2326 0.790694 15.3038 0.836584 15.3738 0.884251C15.4437 0.931911 15.5124 0.981284 15.58 1.03237C15.6474 1.08346 15.7136 1.13619 15.7786 1.19058C15.8434 1.24497 15.9069 1.30094 15.969 1.35849C16.0311 1.41604 16.0917 1.47511 16.1509 1.53568L16.2309 1.61868C16.2897 1.67895 16.3471 1.7406 16.403 1.80363C16.4588 1.86667 16.5131 1.93102 16.5659 1.99668C16.6186 2.06235 16.6697 2.12925 16.7192 2.19738C16.7688 2.26551 16.8166 2.33481 16.8628 2.40526C16.909 2.47571 16.9534 2.54723 16.996 2.61983C17.0388 2.69242 17.0797 2.76601 17.1189 2.84059C17.158 2.91516 17.1953 2.99064 17.2309 3.06702C17.2663 3.14341 17.2999 3.2206 17.3318 3.29861C17.3635 3.37662 17.3934 3.45535 17.4214 3.5348C17.4493 3.61425 17.4753 3.69433 17.4995 3.77504C17.5235 3.85575 17.5456 3.93699 17.5658 4.01877C17.586 4.10055 17.6041 4.18277 17.6203 4.26543C17.6364 4.34808 17.6507 4.43108 17.6629 4.51443C17.675 4.59778 17.6851 4.68137 17.6933 4.7652C17.7014 4.84903 17.7075 4.93301 17.7115 5.01714C17.7156 5.10127 17.7177 5.18545 17.7177 5.26968C17.7177 5.35391 17.7156 5.43809 17.7115 5.52222C17.7075 5.60635 17.7014 5.69033 17.6933 5.77416C17.6851 5.858 17.675 5.94159 17.6629 6.02493C17.6507 6.10828 17.6364 6.19128 17.6203 6.27393C17.6041 6.35659 17.586 6.43881 17.5658 6.52059C17.5456 6.60237 17.5235 6.68361 17.4995 6.76432C17.4753 6.84503 17.4493 6.92512 17.4214 7.00457C17.3934 7.08404 17.3635 7.16278 17.3318 7.24078C17.2999 7.31878 17.2663 7.39598 17.2309 7.47238C17.1953 7.54871 17.158 7.62418 17.1189 7.69878C17.0797 7.77338 17.0388 7.84698 16.996 7.91958C16.9534 7.99211 16.909 8.06361 16.8628 8.13408C16.8166 8.20455 16.7688 8.27385 16.7192 8.34198C16.6697 8.41011 16.6186 8.47701 16.5659 8.54268C16.5131 8.60835 16.4588 8.67268 16.403 8.73568C16.3471 8.79875 16.2897 8.86041 16.2309 8.92068L8.85885 16.4707C8.79972 16.5313 8.73908 16.5903 8.67695 16.6479C8.61488 16.7054 8.55142 16.7614 8.48655 16.8158C8.42162 16.8702 8.35542 16.9229 8.28795 16.974C8.22042 17.025 8.15168 17.0744 8.08175 17.1221C8.01175 17.1697 7.94062 17.2156 7.86835 17.2598C7.79608 17.3039 7.72278 17.3462 7.64845 17.3867C7.57406 17.4271 7.49872 17.4657 7.42243 17.5024C7.34614 17.5391 7.26898 17.5739 7.19096 17.6068C7.11293 17.6396 7.03414 17.6705 6.95457 17.6995C6.87501 17.7284 6.79478 17.7553 6.71387 17.7803C6.63296 17.8052 6.55148 17.8281 6.46943 17.849C6.38738 17.8698 6.30487 17.8887 6.22188 17.9055C6.13889 17.9222 6.05554 17.9369 5.97182 17.9495C5.8881 17.9621 5.80412 17.9727 5.71988 17.9811C5.63564 17.9895 5.55124 17.9958 5.46668 18C5.38212 18.0042 5.29751 18.0064 5.21285 18.0064C5.12819 18.0064 5.04358 18.0042 4.95902 18C4.87446 17.9958 4.79006 17.9895 4.70582 17.9811C4.62157 17.9727 4.53759 17.9621 4.45388 17.9495C4.37016 17.9369 4.28681 17.9222 4.20382 17.9055C4.12083 17.8887 4.03832 17.8698 3.95627 17.849C3.87422 17.8281 3.79274 17.8052 3.71183 17.7803C3.63092 17.7553 3.55069 17.7284 3.47113 17.6995C3.39156 17.6705 3.31277 17.6396 3.23474 17.6068C3.15672 17.5739 3.07956 17.5391 3.00327 17.5024C2.92698 17.4657 2.85166 17.4271 2.77729 17.3867C2.70292 17.3462 2.6296 17.3039 2.55734 17.2598C2.48509 17.2156 2.41397 17.1697 2.344 17.1221C2.27403 17.0744 2.20528 17.025 2.13777 16.974C2.07026 16.9229 2.00406 16.8702 1.93918 16.8158C1.87429 16.7614 1.8108 16.7054 1.74871 16.6479C1.68662 16.5903 1.626 16.5313 1.56685 16.4707L1.48685 16.3877C1.42801 16.3274 1.37066 16.2657 1.31479 16.2027C1.25893 16.1397 1.20462 16.0753 1.15187 16.0097C1.09912 15.944 1.04798 15.8771 0.99847 15.809C0.94895 15.7408 0.901107 15.6715 0.85494 15.6011C0.80878 15.5306 0.764343 15.4591 0.72163 15.3866C0.678923 15.314 0.637997 15.2404 0.59885 15.1658C0.559697 15.0912 0.52237 15.0157 0.48687 14.9394C0.45137 14.863 0.417737 14.7858 0.38597 14.7078C0.354203 14.6298 0.32434 14.551 0.29638 14.4716C0.268413 14.3921 0.242387 14.312 0.2183 14.2313C0.194213 14.1506 0.172087 14.0694 0.15192 13.9876C0.13176 13.9058 0.113587 13.8236 0.0974 13.741C0.0812199 13.6583 0.0670433 13.5753 0.0548699 13.492C0.0426967 13.4086 0.0325434 13.325 0.02441 13.2412C0.0162833 13.1573 0.0101833 13.0733 0.00610995 12.9892C0.00203657 12.905 0 12.8209 0 12.7367C0 12.6525 0.00203657 12.5683 0.00610995 12.4842C0.0101833 12.4 0.0162833 12.316 0.02441 12.2322C0.0325434 12.1484 0.0426967 12.0648 0.0548699 11.9815C0.0670433 11.8981 0.0812199 11.815 0.0974 11.7324C0.113587 11.6498 0.13176 11.5676 0.15192 11.4858C0.172087 11.404 0.194213 11.3227 0.2183 11.2421C0.242387 11.1613 0.268413 11.0812 0.29638 11.0018C0.32434 10.9223 0.354203 10.8436 0.38597 10.7656C0.417737 10.6876 0.45137 10.6104 0.48687 10.534C0.52237 10.4576 0.559697 10.3822 0.59885 10.3076C0.637997 10.233 0.678923 10.1594 0.72163 10.0868C0.764343 10.0142 0.808783 9.94275 0.85495 9.87228C0.90111 9.80181 0.94895 9.73251 0.99847 9.66438C1.04798 9.59625 1.09912 9.52935 1.15187 9.46368C1.20462 9.39801 1.25893 9.33368 1.31479 9.27068C1.37066 9.20761 1.42801 9.14595 1.48685 9.08568Z"></path><path id="路径 2" fill-rule="evenodd" style="fill:#307AF2" opacity="1" d="M16.1568 1.53568L23.4489 9.00268C23.5091 9.06428 23.5677 9.12731 23.6249 9.19178C23.6819 9.25625 23.7375 9.32205 23.7915 9.38918C23.8454 9.45638 23.8977 9.52481 23.9483 9.59448C23.9989 9.66415 24.0479 9.73498 24.0951 9.80698C24.1423 9.87905 24.1877 9.95221 24.2314 10.0265C24.275 10.1007 24.3169 10.1759 24.357 10.2522C24.397 10.3284 24.4351 10.4056 24.4715 10.4838C24.5078 10.5618 24.5422 10.6408 24.5747 10.7206C24.6071 10.8003 24.6377 10.8808 24.6663 10.9621C24.6949 11.0433 24.7215 11.1252 24.7461 11.2078C24.7707 11.2903 24.7934 11.3734 24.814 11.457C24.8346 11.5406 24.8532 11.6247 24.8698 11.7092C24.8863 11.7937 24.9008 11.8786 24.9133 11.9639C24.9257 12.0491 24.936 12.1345 24.9444 12.2203C24.9527 12.306 24.9589 12.3919 24.9631 12.478C24.9673 12.564 24.9694 12.65 24.9694 12.7362C24.9694 12.8223 24.9673 12.9084 24.9631 12.9944C24.9589 13.0804 24.9527 13.1663 24.9444 13.2521C24.936 13.3378 24.9257 13.4233 24.9133 13.5085C24.9008 13.5937 24.8863 13.6786 24.8698 13.7631C24.8532 13.8476 24.8346 13.9317 24.814 14.0154C24.7934 14.099 24.7707 14.182 24.7461 14.2646C24.7215 14.3471 24.6949 14.429 24.6663 14.5103C24.6377 14.5915 24.6071 14.672 24.5747 14.7518C24.5422 14.8316 24.5078 14.9105 24.4715 14.9886C24.4351 15.0667 24.397 15.1439 24.357 15.2202C24.3169 15.2964 24.275 15.3717 24.2314 15.4459C24.1877 15.5201 24.1423 15.5933 24.0951 15.6654C24.0479 15.7374 23.9989 15.8082 23.9483 15.8779C23.8977 15.9475 23.8454 16.016 23.7915 16.0832C23.7375 16.1503 23.6819 16.2161 23.6249 16.2806C23.5677 16.345 23.5091 16.4081 23.4489 16.4697C23.3897 16.5303 23.3291 16.5893 23.267 16.6469C23.2049 16.7044 23.1414 16.7604 23.0766 16.8148C23.0116 16.8692 22.9454 16.9219 22.878 16.973C22.8104 17.024 22.7417 17.0734 22.6718 17.1211C22.6018 17.1687 22.5306 17.2146 22.4584 17.2588C22.3861 17.3029 22.3128 17.3452 22.2385 17.3857C22.1641 17.4261 22.0887 17.4647 22.0125 17.5014C21.9361 17.5381 21.859 17.5729 21.781 17.6058C21.703 17.6386 21.6242 17.6695 21.5446 17.6985C21.465 17.7274 21.3848 17.7543 21.3039 17.7793C21.223 17.8042 21.1415 17.8271 21.0595 17.848C20.9774 17.8688 20.8949 17.8877 20.8119 17.9045C20.7289 17.9212 20.6455 17.9359 20.5619 17.9485C20.4781 17.9611 20.3941 17.9717 20.3099 17.9801C20.2257 17.9885 20.1413 17.9948 20.0567 17.999C19.9721 18.0032 19.8875 18.0054 19.8029 18.0054C19.7182 18.0054 19.6336 18.0032 19.5491 17.999C19.4645 17.9948 19.3801 17.9885 19.2959 17.9801C19.2116 17.9717 19.1276 17.9611 19.0439 17.9485C18.9601 17.9359 18.8768 17.9212 18.7939 17.9045C18.7109 17.8877 18.6283 17.8688 18.5463 17.848C18.4642 17.8271 18.3827 17.8042 18.3019 17.7793C18.2209 17.7543 18.1407 17.7274 18.0612 17.6985C17.9816 17.6695 17.9028 17.6386 17.8248 17.6058C17.7468 17.5729 17.6696 17.5381 17.5933 17.5014C17.517 17.4647 17.4417 17.4261 17.3673 17.3857C17.2929 17.3452 17.2196 17.3029 17.1473 17.2588C17.0751 17.2146 17.0039 17.1687 16.9339 17.1211C16.864 17.0734 16.7953 17.024 16.7277 16.973C16.6603 16.9219 16.5941 16.8692 16.5291 16.8148C16.4643 16.7604 16.4008 16.7044 16.3387 16.6469C16.2766 16.5893 16.216 16.5303 16.1568 16.4697L8.86484 9.00268C8.80464 8.94108 8.74601 8.87805 8.68894 8.81358C8.63181 8.74911 8.57624 8.68331 8.52224 8.61618C8.46831 8.54898 8.41604 8.48055 8.36544 8.41088C8.31478 8.34121 8.26584 8.27038 8.21864 8.19838C8.17144 8.12631 8.12601 8.05315 8.08234 7.97888C8.03868 7.90468 7.99681 7.82945 7.95674 7.75318C7.91674 7.67691 7.87858 7.59971 7.84224 7.52158C7.80591 7.44351 7.77151 7.36458 7.73904 7.28478C7.70658 7.20505 7.67604 7.12454 7.64744 7.04327C7.61885 6.96202 7.59223 6.88013 7.56759 6.7976C7.54296 6.71507 7.52034 6.63199 7.49972 6.54836C7.4791 6.46473 7.46052 6.38066 7.44396 6.29613C7.42742 6.2116 7.41292 6.12673 7.40046 6.0415C7.38802 5.95627 7.37764 5.87079 7.36932 5.78506C7.36101 5.69933 7.35477 5.61345 7.35061 5.52742C7.34645 5.44139 7.34436 5.35531 7.34436 5.26918C7.34436 5.18305 7.34645 5.09696 7.35061 5.01093C7.35477 4.9249 7.36101 4.83902 7.36932 4.75329C7.37764 4.66756 7.38802 4.58209 7.40046 4.49686C7.41292 4.41163 7.42742 4.32676 7.44396 4.24223C7.46052 4.1577 7.4791 4.07363 7.49972 3.99C7.52034 3.90637 7.54296 3.82329 7.56759 3.74076C7.59223 3.65823 7.61885 3.57634 7.64744 3.49509C7.67604 3.41384 7.70658 3.33333 7.73904 3.25356C7.77151 3.17379 7.80591 3.09485 7.84224 3.01674C7.87858 2.93863 7.91674 2.86145 7.95674 2.78519C7.99681 2.70893 8.03868 2.63368 8.08234 2.55944C8.12601 2.48521 8.17144 2.41207 8.21864 2.34003C8.26584 2.26799 8.31478 2.19713 8.36544 2.12745C8.41604 2.05778 8.46831 1.98937 8.52224 1.92222C8.57624 1.85507 8.63181 1.78927 8.68894 1.72481C8.74601 1.66035 8.80464 1.59731 8.86484 1.53568C8.92397 1.47511 8.98461 1.41604 9.04674 1.35849C9.10881 1.30094 9.17227 1.24497 9.23714 1.19058C9.30207 1.13619 9.36827 1.08346 9.43574 1.03237C9.50327 0.981283 9.57201 0.931907 9.64194 0.88424C9.71194 0.83658 9.78307 0.790693 9.85534 0.74658C9.92761 0.70246 10.0009 0.660167 10.0752 0.6197C10.1496 0.57924 10.225 0.540657 10.3012 0.50395C10.3776 0.467237 10.4547 0.43245 10.5327 0.39959C10.6107 0.366723 10.6895 0.335823 10.7691 0.30689C10.8487 0.27795 10.9289 0.251013 11.0098 0.22608C11.0907 0.20114 11.1722 0.178233 11.2542 0.15736C11.3363 0.13648 11.4188 0.11766 11.5018 0.1009C11.5848 0.0841334 11.6681 0.0694466 11.7518 0.0568399C11.8356 0.0442266 11.9196 0.03371 12.0038 0.02529C12.088 0.0168633 12.1724 0.0105433 12.257 0.00633001C12.3416 0.00211 12.4262 0 12.5108 0C12.5955 0 12.6801 0.00211 12.7646 0.00633001C12.8492 0.0105433 12.9336 0.0168633 13.0178 0.02529C13.1021 0.03371 13.1861 0.0442266 13.2698 0.0568399C13.3536 0.0694466 13.4369 0.0841334 13.5198 0.1009C13.6028 0.11766 13.6854 0.13648 13.7674 0.15736C13.8495 0.178233 13.931 0.20114 14.0118 0.22608C14.0928 0.251013 14.173 0.27795 14.2525 0.30689C14.3321 0.335823 14.4109 0.366723 14.4889 0.39959C14.5669 0.43245 14.6441 0.467237 14.7204 0.50395C14.7967 0.540657 14.872 0.57924 14.9464 0.6197C15.0208 0.660167 15.0941 0.70246 15.1663 0.74658C15.2386 0.790693 15.3097 0.83658 15.3797 0.88424C15.4497 0.931907 15.5184 0.981283 15.5859 1.03237C15.6534 1.08346 15.7196 1.13619 15.7845 1.19058C15.8494 1.24497 15.9129 1.30094 15.9749 1.35849C16.0371 1.41604 16.0977 1.47511 16.1568 1.53568Z"></path><path id="路径 3" fill-rule="evenodd" style="fill:#0057FE" opacity="1" d="M16.2408 1.62767L19.7938 5.26567L12.5018 12.7326L5.20984 5.26567L8.76284 1.62767C8.82351 1.56555 8.88567 1.50498 8.94934 1.44596C9.01301 1.38694 9.07811 1.32954 9.14464 1.27377C9.21117 1.218 9.27907 1.16391 9.34834 1.11152C9.41754 1.05913 9.48804 1.0085 9.55984 0.959625C9.63157 0.910752 9.70451 0.863692 9.77864 0.818444C9.85271 0.773205 9.92787 0.729834 10.0041 0.688335C10.0804 0.646842 10.1577 0.607271 10.2359 0.569624C10.3141 0.531985 10.3932 0.496312 10.4732 0.462605C10.5533 0.428905 10.6341 0.397218 10.7156 0.367545C10.7972 0.337872 10.8795 0.310248 10.9625 0.284675C11.0455 0.259102 11.1291 0.235612 11.2132 0.214205C11.2974 0.192792 11.382 0.173492 11.467 0.156305C11.5522 0.139111 11.6377 0.124048 11.7235 0.111115C11.8093 0.0981879 11.8954 0.0874045 11.9818 0.0787644C12.0682 0.0701244 12.1548 0.0636411 12.2415 0.0593145C12.3283 0.0549946 12.415 0.0528345 12.5018 0.0528345C12.5886 0.0528345 12.6754 0.0549946 12.7621 0.0593145C12.8489 0.0636411 12.9354 0.0701244 13.0218 0.0787644C13.1082 0.0874045 13.1943 0.0981879 13.2801 0.111115C13.366 0.124048 13.4515 0.139111 13.5366 0.156305C13.6217 0.173492 13.7063 0.192792 13.7904 0.214205C13.8746 0.235612 13.9581 0.259102 14.0411 0.284675C14.1241 0.310248 14.2064 0.337872 14.2879 0.367545C14.3695 0.397218 14.4504 0.428905 14.5304 0.462605C14.6104 0.496312 14.6895 0.531985 14.7677 0.569624C14.846 0.607271 14.9233 0.646842 14.9995 0.688335C15.0758 0.729834 15.151 0.773205 15.225 0.818444C15.2991 0.863692 15.3721 0.910752 15.4438 0.959625C15.5156 1.0085 15.5861 1.05913 15.6553 1.11152C15.7246 1.16391 15.7925 1.218 15.859 1.27377C15.9255 1.32954 15.9906 1.38694 16.0543 1.44596C16.118 1.50498 16.1801 1.56555 16.2408 1.62767Z"></path><g opacity="1"  transform="translate(74.40283584594727 12.673677444458008)  rotate(0)"><path id="路径 4" fill-rule="evenodd" style="fill:#000000" opacity="1" d="M1.85 3.7C1.9106 3.7 1.97103 3.69703 2.0313 3.6911C2.09164 3.68517 2.1515 3.6763 2.2109 3.6645C2.27037 3.65263 2.32907 3.6379 2.387 3.6203C2.445 3.60277 2.502 3.5824 2.558 3.5592C2.61394 3.536 2.66863 3.51013 2.7221 3.4816C2.77551 3.453 2.8274 3.42187 2.8778 3.3882C2.9282 3.35453 2.9768 3.3185 3.0236 3.2801C3.07047 3.24163 3.1153 3.20097 3.1581 3.1581C3.20097 3.1153 3.24164 3.07047 3.2801 3.0236C3.3185 2.9768 3.35454 2.9282 3.3882 2.8778C3.42187 2.8274 3.45296 2.7755 3.4815 2.7221C3.5101 2.66863 3.536 2.61393 3.5592 2.558C3.58241 2.502 3.60277 2.445 3.6203 2.387C3.6379 2.32907 3.6526 2.27037 3.6644 2.2109C3.67627 2.1515 3.68517 2.09163 3.6911 2.0313C3.69704 1.97103 3.7 1.9106 3.7 1.85C3.7 1.7894 3.69704 1.72897 3.6911 1.6687C3.68517 1.60837 3.67627 1.5485 3.6644 1.4891C3.6526 1.42963 3.6379 1.37093 3.6203 1.313C3.60277 1.255 3.58241 1.198 3.5592 1.142C3.536 1.08607 3.51013 1.03137 3.4816 0.977901C3.453 0.9245 3.42187 0.8726 3.3882 0.8222C3.35454 0.7718 3.3185 0.723201 3.2801 0.6764C3.24164 0.629533 3.20097 0.584666 3.1581 0.5418C3.1153 0.499 3.07047 0.458367 3.0236 0.4199C2.9768 0.3815 2.9282 0.345467 2.8778 0.3118C2.8274 0.278133 2.77551 0.247 2.7221 0.2184C2.66863 0.189867 2.61394 0.164001 2.558 0.1408C2.502 0.1176 2.445 0.0972338 2.387 0.0797005C2.32907 0.0621004 2.27037 0.0473671 2.2109 0.0355005C2.1515 0.0236998 2.09164 0.0148335 2.0313 0.00889969C1.97103 0.00296688 1.9106 0 1.85 0C1.7894 0 1.72897 0.00296688 1.6687 0.00889969C1.60837 0.0148335 1.5485 0.0236998 1.4891 0.0355005C1.42963 0.0473671 1.37093 0.0621004 1.313 0.0797005C1.255 0.0972338 1.198 0.1176 1.142 0.1408C1.08607 0.164001 1.03136 0.189867 0.977898 0.2184C0.924431 0.247 0.872536 0.278133 0.822205 0.3118C0.771805 0.345467 0.723198 0.3815 0.676399 0.4199C0.629532 0.458367 0.584671 0.499034 0.541801 0.5419C0.499001 0.584701 0.458366 0.629533 0.419899 0.6764C0.3815 0.723201 0.345467 0.7718 0.311798 0.8222C0.278137 0.8726 0.247002 0.9245 0.218399 0.977901C0.189865 1.03137 0.164001 1.08607 0.1408 1.142C0.117599 1.198 0.0972366 1.255 0.0797043 1.313C0.0621033 1.37093 0.0473709 1.42963 0.0354996 1.4891C0.0237045 1.5485 0.0148315 1.60837 0.0089035 1.6687C0.00296783 1.72897 0 1.7894 0 1.85C0 1.9106 0.00296783 1.97103 0.0089035 2.0313C0.0148315 2.09163 0.0237045 2.1515 0.0354996 2.2109C0.0473709 2.27037 0.0620651 2.32907 0.0795975 2.387C0.0971985 2.445 0.117599 2.502 0.1408 2.558C0.164001 2.61393 0.189865 2.66863 0.218399 2.7221C0.247002 2.7755 0.278137 2.8274 0.311798 2.8778C0.345467 2.9282 0.3815 2.9768 0.419899 3.0236C0.458366 3.07047 0.499001 3.1153 0.541801 3.1581C0.584671 3.20097 0.629532 3.24163 0.676399 3.2801C0.723198 3.3185 0.771805 3.35453 0.822205 3.3882C0.872536 3.42187 0.924431 3.453 0.977898 3.4816C1.03136 3.51013 1.08607 3.536 1.142 3.5592C1.198 3.5824 1.255 3.60277 1.313 3.6203C1.37093 3.6379 1.42963 3.65263 1.4891 3.6645C1.5485 3.6763 1.60837 3.68517 1.6687 3.6911C1.72897 3.69703 1.7894 3.7 1.85 3.7Z"></path></g><path id="路径 5" fill-rule="evenodd" style="fill:#000000" opacity="1" d="M43.0628 5.44068L43.0628 16.0997L40.2578 16.0997L40.2578 14.9227C39.5648 15.7807 38.5308 16.3747 37.0678 16.3747C34.1308 16.3747 31.9088 13.9657 31.9088 10.7647C31.9088 7.56368 34.1308 5.15468 37.0678 5.15468C38.5308 5.15468 39.5538 5.74868 40.2578 6.61768L40.2578 5.44068L43.0628 5.44068ZM37.5958 7.82768C35.9128 7.82768 34.8458 9.13668 34.8458 10.7647C34.8458 12.3927 35.9128 13.7017 37.5958 13.7017C39.2348 13.7017 40.3458 12.4477 40.3458 10.7647C40.3458 9.08168 39.2348 7.82768 37.5958 7.82768ZM50.7628 5.15468C51.3788 5.15468 51.8628 5.24268 52.2588 5.38568L51.8298 8.23468C51.3568 8.02568 50.6748 7.89368 50.0918 7.89368C48.7608 7.89368 47.8478 8.70768 47.8478 10.2917L47.8478 16.0997L44.9768 16.0997L44.9768 5.44068L47.7598 5.44068L47.7598 6.60668C48.4308 5.60568 49.4538 5.15468 50.7628 5.15468ZM57.7698 5.15468C59.5518 5.15468 61.0588 5.88068 62.0378 7.16768L59.9698 8.89468C59.3208 8.20168 58.6278 7.82768 57.6928 7.82768C56.2078 7.82768 55.0198 8.99368 55.0198 10.7647C55.0198 12.5467 56.1968 13.7017 57.6818 13.7017C58.6058 13.7017 59.3978 13.2837 60.0028 12.6237L62.0488 14.3727C61.0478 15.6597 59.5518 16.3747 57.7698 16.3747C54.3708 16.3747 52.0938 13.9987 52.0938 10.7647C52.0938 7.54168 54.3708 5.15468 57.7698 5.15468ZM67.8898 5.15468C71.2118 5.15468 73.6648 7.55268 73.6648 10.7647C73.6648 13.9767 71.2118 16.3747 67.8898 16.3747C64.5788 16.3747 62.1368 13.9767 62.1368 10.7647C62.1368 7.55268 64.5788 5.15468 67.8898 5.15468ZM67.8898 7.82768C66.2728 7.82768 65.0628 9.03768 65.0628 10.7647C65.0628 12.4917 66.2728 13.7017 67.8898 13.7017C69.5068 13.7017 70.7278 12.4917 70.7278 10.7647C70.7278 9.03768 69.5068 7.82768 67.8898 7.82768Z"></path></g></g></g><g opacity="1"  transform="translate(67.5 8)  rotate(0)"><mask id="bg-mask-1" fill="white"><use transform="translate(0 0)  rotate(0)" xlink:href="#path_1"></use></mask><g mask="url(#bg-mask-1)" ><g opacity="1"  transform="translate(14.39071273803711 0)  rotate(0)"><g opacity="1"  transform="translate(0 0.0366666316986084)  rotate(0)"><path id="路径 1" fill-rule="evenodd" style="fill:#4D1DB5" opacity="1" d="M18.3839 9.07016C18.3839 9.44592 18.0644 9.76352 17.6862 9.76352L12.1054 9.76352C11.7273 9.76352 11.4077 9.44599 11.4077 9.07016L11.4077 1.84903C11.4077 1.47319 11.7273 1.15559 12.1054 1.15559L17.6862 1.15559C18.0644 1.15559 18.3839 1.47312 18.3839 1.84895L18.3839 9.07008L18.3839 9.07016ZM17.6862 0L12.1054 0C11.0822 0 10.245 0.83204 10.245 1.84895L10.245 9.07008C10.245 10.0869 11.0822 10.9191 12.1054 10.9191L17.6862 10.9191C18.7094 10.9191 19.5466 10.0869 19.5466 9.07016L19.5466 1.84903C19.5465 0.831966 18.7094 0 17.6862 0ZM0 5.89783L0 10.9191L1.1627 10.9191L1.1627 5.89783C1.1627 5.52016 1.48243 5.2027 1.86032 5.2027L9.30146 5.2027L9.30146 4.04411L1.86032 4.04411C0.8371 4.04411 0 4.87842 0 5.89783ZM0 1.07844L9.30146 1.07844L9.30146 0L0 0L0 1.07844ZM42.7328 10.9191L43.8113 10.9191L43.8113 0L42.7328 0L42.7328 10.9191ZM46.305 0L45.1593 0L45.1593 10.9191L52.0343 10.9191L52.0343 9.7636L46.3051 9.7636L46.305 0ZM28.8981 3.40905C28.8981 3.77146 28.6009 4.0788 28.2406 4.10036C28.2273 4.10007 28.2145 4.09838 28.2012 4.09838L21.9224 4.09838L21.9224 1.8491C21.9224 1.47327 22.2419 1.15566 22.6199 1.15566L28.8981 1.15566L28.8981 3.40905ZM30.0607 3.40905L30.0607 0L22.6199 0C21.5969 0 20.7598 0.832113 20.7598 1.8491L20.7598 5.25814L20.7603 10.9191L21.9229 10.9191L21.9229 5.25814L28.2005 5.25814C28.2143 5.25814 28.2275 5.25638 28.2411 5.25602C28.6063 5.27677 28.8987 5.57839 28.8987 5.94748L28.8987 10.9191L30.0613 10.9191L30.0613 5.94748C30.0613 5.45446 29.866 5.00778 29.5497 4.67647C29.8653 4.34463 30.0608 3.89884 30.0608 3.40905L30.0607 3.40905ZM57.7362 0L57.7362 0.427533L57.7466 0.427533L57.7466 3.45297C57.7466 3.82873 57.4281 4.14648 57.049 4.14648L51.4681 4.14648C51.0904 4.14648 50.7707 3.82873 50.7707 3.45297L50.7707 1.26082L50.7601 1.26082L50.7601 0L49.6078 0L49.6078 3.45297C49.6078 4.46996 50.4451 5.30207 51.4681 5.30207L53.6775 5.30207L53.6775 10.9191L54.8404 10.9191L54.8404 5.30207L57.049 5.30207C58.0723 5.30207 58.9093 4.46996 58.9093 3.45297L58.9093 0L57.7363 0L57.7362 0ZM41.0099 0L40.1828 0L36.4095 3.67642L32.6974 0L31.8773 0L31.8768 0.000513335L31.1398 0.000513335L31.1398 10.9191L32.293 10.9191L32.293 1.22415L36.403 5.29474L40.3663 1.4333L40.3663 10.9191L41.5197 10.9191L41.5197 0.000513335L41.0104 0.000513335L41.0099 0Z"></path><path id="路径 2" fill-rule="evenodd" style="fill:#4D1DB5" opacity="1" d="M15.2775 4.44855L14.5142 4.44855C14.5038 4.44855 14.4935 4.4488 14.4833 4.4493C14.473 4.44981 14.4627 4.45056 14.4525 4.45157C14.4422 4.45258 14.432 4.45384 14.4218 4.45535C14.4116 4.45686 14.4015 4.45862 14.3914 4.46062C14.3813 4.46263 14.3712 4.46489 14.3613 4.46739C14.3512 4.4699 14.3413 4.47264 14.3315 4.47563C14.3216 4.47862 14.3118 4.48185 14.3021 4.48532C14.2924 4.48879 14.2828 4.49249 14.2733 4.49643C14.2638 4.50037 14.2544 4.50455 14.2451 4.50895C14.2358 4.51336 14.2265 4.51799 14.2174 4.52284C14.2084 4.5277 14.1994 4.53277 14.1906 4.53806C14.1818 4.54336 14.1731 4.54887 14.1645 4.55459C14.1559 4.56031 14.1475 4.56624 14.1392 4.57238C14.1309 4.57851 14.1228 4.58485 14.1149 4.59138C14.1069 4.59791 14.0991 4.60464 14.0915 4.61156C14.0838 4.61847 14.0764 4.62557 14.0691 4.63285C14.0618 4.64014 14.0547 4.6476 14.0478 4.65523C14.0409 4.66286 14.0342 4.67066 14.0277 4.67862C14.0211 4.68658 14.0148 4.6947 14.0087 4.70298C14.0025 4.71125 13.9966 4.71967 13.9908 4.72823C13.9851 4.73679 13.9796 4.74549 13.9743 4.75433C13.969 4.76317 13.9639 4.77212 13.9591 4.78121C13.9543 4.79029 13.9496 4.79949 13.9452 4.8088C13.9408 4.81811 13.9367 4.82753 13.9327 4.83704C13.9287 4.84656 13.925 4.85617 13.9215 4.86586C13.9181 4.87556 13.9149 4.88534 13.9119 4.8952C13.9089 4.90505 13.9061 4.91498 13.9037 4.92497C13.9012 4.93496 13.8989 4.94501 13.8969 4.95511C13.8949 4.96521 13.8931 4.97536 13.8916 4.98554C13.8901 4.99573 13.8888 5.00595 13.8878 5.0162C13.8868 5.02646 13.8861 5.03673 13.8855 5.04701C13.8851 5.0573 13.8848 5.06759 13.8848 5.07789L13.8848 5.84122C13.8848 5.85152 13.8851 5.86181 13.8855 5.8721C13.8861 5.88239 13.8868 5.89266 13.8878 5.90291C13.8888 5.91316 13.8901 5.92338 13.8916 5.93357C13.8931 5.94375 13.8949 5.9539 13.8969 5.964C13.8989 5.97411 13.9012 5.98415 13.9037 5.99414C13.9061 6.00414 13.9089 6.01406 13.9119 6.02391C13.9149 6.03377 13.9181 6.04355 13.9215 6.05325C13.925 6.06295 13.9287 6.07256 13.9327 6.08207C13.9367 6.09159 13.9408 6.101 13.9452 6.11031C13.9496 6.11962 13.9543 6.12882 13.9591 6.1379C13.9639 6.14699 13.969 6.15594 13.9743 6.16478C13.9796 6.17362 13.9851 6.18232 13.9908 6.19088C13.9966 6.19945 14.0025 6.20786 14.0087 6.21614C14.0148 6.22442 14.0211 6.23253 14.0277 6.24049C14.0342 6.24845 14.0409 6.25625 14.0478 6.26388C14.0547 6.27152 14.0618 6.27898 14.0691 6.28626C14.0764 6.29354 14.0838 6.30064 14.0915 6.30755C14.0991 6.31447 14.1069 6.3212 14.1149 6.32773C14.1228 6.33427 14.1309 6.3406 14.1392 6.34674C14.1475 6.35287 14.1559 6.3588 14.1645 6.36453C14.1731 6.37025 14.1818 6.37575 14.1906 6.38105C14.1994 6.38634 14.2084 6.39142 14.2174 6.39627C14.2265 6.40113 14.2358 6.40576 14.2451 6.41016C14.2544 6.41457 14.2638 6.41874 14.2733 6.42268C14.2828 6.42662 14.2924 6.43033 14.3021 6.4338C14.3118 6.43727 14.3216 6.4405 14.3315 6.44348C14.3413 6.44647 14.3512 6.44922 14.3613 6.45172C14.3712 6.45422 14.3813 6.45648 14.3914 6.45849C14.4015 6.4605 14.4116 6.46226 14.4218 6.46376C14.432 6.46527 14.4422 6.46653 14.4525 6.46754C14.4627 6.46855 14.473 6.46931 14.4833 6.46981C14.4935 6.47032 14.5038 6.47057 14.5142 6.47057L15.2775 6.47057C15.2878 6.47057 15.2981 6.47032 15.3084 6.46981C15.3187 6.46931 15.3289 6.46855 15.3392 6.46754C15.3494 6.46653 15.3596 6.46527 15.3698 6.46377C15.38 6.46226 15.3902 6.4605 15.4002 6.45849C15.4104 6.45648 15.4204 6.45422 15.4304 6.45172C15.4404 6.44922 15.4503 6.44647 15.4602 6.44348C15.47 6.4405 15.4798 6.43727 15.4895 6.4338C15.4992 6.43033 15.5088 6.42662 15.5183 6.42268C15.5278 6.41874 15.5373 6.41457 15.5466 6.41016C15.5559 6.40576 15.5651 6.40113 15.5742 6.39627C15.5833 6.39142 15.5922 6.38634 15.601 6.38105C15.6099 6.37575 15.6186 6.37025 15.6271 6.36453C15.6357 6.3588 15.6441 6.35287 15.6524 6.34674C15.6607 6.3406 15.6688 6.33427 15.6768 6.32773C15.6847 6.3212 15.6925 6.31447 15.7002 6.30755C15.7078 6.30064 15.7153 6.29354 15.7225 6.28626C15.7298 6.27898 15.7369 6.27152 15.7438 6.26388C15.7507 6.25625 15.7575 6.24845 15.764 6.24049C15.7705 6.23253 15.7769 6.22442 15.783 6.21614C15.7891 6.20786 15.7951 6.19945 15.8008 6.19088C15.8065 6.18232 15.812 6.17362 15.8173 6.16479C15.8226 6.15595 15.8277 6.14699 15.8325 6.1379C15.8374 6.12882 15.842 6.11962 15.8464 6.11032C15.8508 6.101 15.855 6.09159 15.8589 6.08207C15.8629 6.07256 15.8666 6.06295 15.8701 6.05325C15.8736 6.04355 15.8768 6.03378 15.8798 6.02391C15.8828 6.01406 15.8855 6.00414 15.888 5.99414C15.8905 5.98415 15.8927 5.97411 15.8947 5.964C15.8967 5.9539 15.8985 5.94375 15.9 5.93357C15.9015 5.92338 15.9028 5.91316 15.9038 5.90291C15.9048 5.89266 15.9056 5.88239 15.9061 5.8721C15.9066 5.86181 15.9068 5.85152 15.9068 5.84122L15.9068 5.07789C15.9068 5.06759 15.9066 5.0573 15.9061 5.04701C15.9056 5.03673 15.9048 5.02646 15.9038 5.0162C15.9028 5.00595 15.9015 4.99573 15.9 4.98554C15.8985 4.97536 15.8967 4.96521 15.8947 4.95511C15.8927 4.94501 15.8905 4.93496 15.888 4.92497C15.8855 4.91498 15.8828 4.90505 15.8798 4.8952C15.8768 4.88534 15.8736 4.87556 15.8701 4.86586C15.8666 4.85617 15.8629 4.84656 15.8589 4.83704C15.855 4.82753 15.8508 4.81811 15.8464 4.8088C15.842 4.79949 15.8374 4.79029 15.8325 4.78121C15.8277 4.77212 15.8226 4.76317 15.8173 4.75433C15.812 4.74549 15.8065 4.73679 15.8008 4.72823C15.7951 4.71967 15.7891 4.71125 15.783 4.70298C15.7769 4.6947 15.7705 4.68658 15.764 4.67862C15.7575 4.67066 15.7507 4.66286 15.7438 4.65523C15.7369 4.6476 15.7298 4.64014 15.7225 4.63285C15.7153 4.62558 15.7078 4.61848 15.7002 4.61156C15.6925 4.60464 15.6847 4.59791 15.6768 4.59138C15.6688 4.58485 15.6607 4.57851 15.6524 4.57238C15.6441 4.56624 15.6357 4.56031 15.6271 4.55459C15.6186 4.54887 15.6099 4.54336 15.601 4.53806C15.5922 4.53277 15.5833 4.5277 15.5742 4.52284C15.5651 4.51799 15.5559 4.51336 15.5466 4.50895C15.5373 4.50455 15.5278 4.50037 15.5183 4.49643C15.5088 4.49249 15.4992 4.48879 15.4895 4.48532C15.4798 4.48185 15.47 4.47862 15.4602 4.47563C15.4503 4.47264 15.4404 4.4699 15.4304 4.46739C15.4204 4.46489 15.4104 4.46263 15.4002 4.46062C15.3902 4.45862 15.38 4.45686 15.3698 4.45535C15.3596 4.45384 15.3494 4.45258 15.3392 4.45157C15.3289 4.45056 15.3187 4.44981 15.3084 4.4493C15.2981 4.4488 15.2878 4.44855 15.2775 4.44855Z"></path></g><path id="路径 5" fill-rule="evenodd" fill="url(#linear_0)" opacity="1" d="M64.5893 0L66.6427 0C68.1005 0 69.2827 1.18199 69.2827 2.64C69.2827 4.09801 68.1005 5.28 66.6427 5.28L61.9493 5.28L61.9493 2.64C61.9493 1.18199 63.1315 0 64.5893 0Z"></path><path id="路径 6" fill-rule="evenodd" style="fill:#FFFFFF" opacity="1" d="M64.5539 4.0128L66.0448 1.31296L65.4075 1.31296L64.4813 3.08235L64.4733 3.08235L64.0538 1.31296L63.3755 1.31296L64.0773 4.0128L64.5539 4.0128ZM67.5987 4.0128L67.6677 3.50944L66.4701 3.50944L67.389 2.80397C67.5056 2.71502 67.6053 2.61521 67.6867 2.50463C67.7681 2.39404 67.8209 2.25236 67.8466 2.07944C67.8642 1.94473 67.8583 1.82644 67.8275 1.7248C67.7967 1.62309 67.7476 1.53853 67.6787 1.47121C67.6105 1.40382 67.5247 1.353 67.4235 1.31868C67.3215 1.28436 67.2101 1.2672 67.0876 1.2672C66.9556 1.2672 66.8302 1.28436 66.7121 1.31868C66.5941 1.353 66.4885 1.40448 66.3953 1.47312C66.3029 1.54176 66.223 1.62756 66.157 1.73052C66.091 1.83348 66.0441 1.95492 66.0162 2.09469L66.5845 2.13664C66.6043 2.04006 66.6491 1.95866 66.718 1.89259C66.7862 1.82651 66.8742 1.79344 66.9813 1.79344C67.07 1.79344 67.1433 1.81947 67.202 1.87161C67.2607 1.92368 67.2834 1.99555 67.2709 2.08707C67.2656 2.12777 67.2528 2.1659 67.2328 2.20147C67.2123 2.23688 67.1888 2.26992 67.1624 2.30061C67.135 2.33146 67.1057 2.36006 67.0744 2.38641C67.0429 2.41311 67.0113 2.43921 66.9805 2.46459L65.7984 3.40648L65.7148 4.0128L67.5987 4.0128Z"></path></g></g></g></g><defs><rect id="path_0" x="0" y="0" width="143" height="24" rx="0" ry="0"/><rect id="path_1" x="0" y="0" width="83.67333221435547" height="11" rx="0" ry="0"/><linearGradient id="linear_0" x1="50%" y1="0%" x2="51%" y2="244.21300000000002%" gradientUnits="objectBoundingBox"><stop offset="0" stop-color="#5009C0" stop-opacity="1" /><stop offset="1" stop-color="#FF6351" stop-opacity="1" /></linearGradient></defs></svg>